<svg width="229" height="57" viewBox="0 0 229 57" fill="none" xmlns="http://www.w3.org/2000/svg">
<path d="M80.7311 43.25C79.2311 43.25 77.8728 43.0333 76.6561 42.6C75.4561 42.15 74.4311 41.5167 73.5811 40.7C72.7478 39.8667 72.0978 38.8667 71.6311 37.7C71.1811 36.5167 70.9561 35.1917 70.9561 33.725C70.9561 32.2083 71.1978 30.825 71.6811 29.575C72.1811 28.3083 72.8728 27.225 73.7561 26.325C74.6394 25.425 75.6978 24.7333 76.9311 24.25C78.1644 23.75 79.5311 23.5 81.0311 23.5C82.0644 23.5 83.0478 23.6417 83.9811 23.925C84.9144 24.2083 85.9228 24.6667 87.0061 25.3L87.4811 23.75H88.3811V30.075H87.1311C86.7978 28.5083 86.1228 27.2917 85.1061 26.425C84.1061 25.5583 82.8478 25.125 81.3311 25.125C79.4144 25.125 77.9228 25.8667 76.8561 27.35C75.8061 28.8167 75.2811 30.875 75.2811 33.525C75.2811 36.125 75.7978 38.1167 76.8311 39.5C77.8644 40.8833 79.3644 41.575 81.3311 41.575C82.7478 41.575 83.8478 41.2167 84.6311 40.5C85.4311 39.7667 85.8311 38.7583 85.8311 37.475C85.8311 36.7083 85.6311 36.15 85.2311 35.8C84.8311 35.4333 84.1561 35.2083 83.2061 35.125V34.125H91.3061V35.125C90.4894 35.125 89.9228 35.3083 89.6061 35.675C89.2894 36.025 89.1311 36.6667 89.1311 37.6V40.925C88.7644 40.925 88.4561 40.9417 88.2061 40.975C87.9561 40.9917 87.7061 41.0417 87.4561 41.125C87.2228 41.1917 86.9561 41.3083 86.6561 41.475C86.3561 41.6417 85.9811 41.8583 85.5311 42.125C84.2478 42.875 82.6478 43.25 80.7311 43.25ZM97.8555 38.9C97.8555 39.5667 97.8805 40.1 97.9305 40.5C97.9805 40.9 98.0805 41.2083 98.2305 41.425C98.3805 41.6417 98.5972 41.7917 98.8805 41.875C99.1639 41.9417 99.5472 41.9833 100.031 42V43H92.1555V42C92.6222 41.9833 92.9972 41.9333 93.2805 41.85C93.5805 41.75 93.8055 41.6 93.9555 41.4C94.1222 41.1833 94.2305 40.8917 94.2805 40.525C94.3472 40.1417 94.3805 39.6583 94.3805 39.075V28.75C94.3805 27.7833 94.3639 26.9917 94.3305 26.375C94.2972 25.7417 94.2555 25.3083 94.2055 25.075C94.1222 24.6583 93.9305 24.3833 93.6305 24.25C93.3472 24.1167 92.8222 24.05 92.0555 24.05V23.2L97.8555 22.25V38.9ZM108.767 29.5C109.767 29.5 110.709 29.675 111.592 30.025C112.492 30.3583 113.276 30.825 113.942 31.425C114.626 32.025 115.159 32.7417 115.542 33.575C115.942 34.3917 116.142 35.2917 116.142 36.275C116.142 37.2917 115.942 38.225 115.542 39.075C115.159 39.925 114.626 40.6583 113.942 41.275C113.276 41.8917 112.492 42.375 111.592 42.725C110.709 43.075 109.767 43.25 108.767 43.25C107.784 43.25 106.851 43.0833 105.967 42.75C105.084 42.4 104.309 41.9167 103.642 41.3C102.976 40.6833 102.451 39.95 102.067 39.1C101.684 38.2333 101.492 37.2917 101.492 36.275C101.492 35.2917 101.684 34.3833 102.067 33.55C102.451 32.7167 102.976 32 103.642 31.4C104.309 30.8 105.084 30.3333 105.967 30C106.851 29.6667 107.784 29.5 108.767 29.5ZM108.767 30.95C108.267 30.95 107.809 31.0833 107.392 31.35C106.976 31.6 106.617 31.9583 106.317 32.425C106.034 32.8917 105.809 33.4583 105.642 34.125C105.492 34.775 105.417 35.5 105.417 36.3C105.417 37.1333 105.492 37.8833 105.642 38.55C105.809 39.2167 106.034 39.7833 106.317 40.25C106.617 40.7167 106.967 41.0833 107.367 41.35C107.784 41.6 108.251 41.725 108.767 41.725C109.284 41.725 109.751 41.6 110.167 41.35C110.601 41.0833 110.967 40.7167 111.267 40.25C111.567 39.7667 111.801 39.1917 111.967 38.525C112.134 37.8583 112.217 37.1167 112.217 36.3C112.217 35.5 112.134 34.775 111.967 34.125C111.801 33.475 111.567 32.9167 111.267 32.45C110.967 31.9667 110.601 31.6 110.167 31.35C109.751 31.0833 109.284 30.95 108.767 30.95ZM122.696 37.525C122.696 38.1417 122.779 38.7167 122.946 39.25C123.129 39.7667 123.371 40.2167 123.671 40.6C123.971 40.9833 124.329 41.2833 124.746 41.5C125.163 41.7167 125.621 41.825 126.121 41.825C127.121 41.825 127.879 41.3667 128.396 40.45C128.913 39.5333 129.171 38.1833 129.171 36.4C129.171 34.6667 128.913 33.35 128.396 32.45C127.896 31.5333 127.138 31.075 126.121 31.075C125.521 31.075 124.963 31.2417 124.446 31.575C123.946 31.8917 123.554 32.3417 123.271 32.925C122.888 33.725 122.696 34.7333 122.696 35.95V37.525ZM122.646 31.475H122.746C123.179 30.8417 123.738 30.3583 124.421 30.025C125.104 29.675 125.879 29.5 126.746 29.5C127.629 29.5 128.446 29.6833 129.196 30.05C129.963 30.4 130.621 30.8833 131.171 31.5C131.738 32.1167 132.179 32.8417 132.496 33.675C132.813 34.5083 132.971 35.4 132.971 36.35C132.971 37.35 132.796 38.275 132.446 39.125C132.113 39.9583 131.646 40.6833 131.046 41.3C130.463 41.9167 129.771 42.4 128.971 42.75C128.188 43.1 127.354 43.275 126.471 43.275C125.554 43.275 124.688 43.1 123.871 42.75C123.071 42.3833 122.429 41.9083 121.946 41.325L120.046 43H119.196V28.125C119.196 26.5583 119.088 25.4833 118.871 24.9C118.821 24.7833 118.763 24.6833 118.696 24.6C118.629 24.5167 118.529 24.45 118.396 24.4C118.279 24.3333 118.113 24.2833 117.896 24.25C117.679 24.2 117.396 24.15 117.046 24.1V23.25L122.646 22.25V31.475ZM147.417 40.675C145.9 42.3917 144.009 43.25 141.742 43.25C140.709 43.25 139.767 43.0917 138.917 42.775C138.084 42.4417 137.367 41.9833 136.767 41.4C136.167 40.8 135.7 40.0917 135.367 39.275C135.034 38.4583 134.867 37.55 134.867 36.55C134.867 35.5167 135.042 34.575 135.392 33.725C135.742 32.8583 136.234 32.1167 136.867 31.5C137.517 30.8667 138.275 30.375 139.142 30.025C140.025 29.675 140.992 29.5 142.042 29.5C143.809 29.5 145.184 29.975 146.167 30.925C147.15 31.875 147.642 33.2083 147.642 34.925C147.642 35.1917 147.6 35.3583 147.517 35.425C147.434 35.475 147.2 35.5 146.817 35.5H138.767C138.7 35.65 138.667 35.925 138.667 36.325C138.667 37.9583 139.017 39.25 139.717 40.2C140.434 41.15 141.4 41.625 142.617 41.625C143.317 41.625 144.009 41.4667 144.692 41.15C145.392 40.8333 146.067 40.3833 146.717 39.8L147.417 40.675ZM142.567 34.1C143.234 34.1 143.659 34.0667 143.842 34C144.042 33.9167 144.142 33.7333 144.142 33.45C144.142 32.7167 143.934 32.1167 143.517 31.65C143.1 31.1833 142.575 30.95 141.942 30.95C141.225 30.95 140.584 31.25 140.017 31.85C139.467 32.4333 139.109 33.1833 138.942 34.1H142.567Z" fill="#1C1C1C"/>
<path d="M0 0H65.1826L75.6781 57H10.4955L0 0Z" fill="#1C1C1C"/>
<path d="M28.072 37.15L31.447 27.5C31.847 26.3833 32.047 25.55 32.047 25C32.047 24.4833 31.8637 24.15 31.497 24C31.147 23.8333 30.597 23.75 29.847 23.75V22.75H36.947V23.75C36.3137 23.75 35.7387 23.9083 35.222 24.225C34.722 24.525 34.3387 25.0417 34.072 25.775L28.047 42.25H25.822L21.472 29.05L16.522 42.25H14.447L9.147 27.65C8.83034 26.8 8.53867 26.1167 8.272 25.6C8.00534 25.0833 7.722 24.6917 7.422 24.425C7.122 24.1583 6.797 23.9833 6.447 23.9C6.097 23.8167 5.68034 23.775 5.197 23.775V22.75H14.647V23.775C13.797 23.775 13.2137 23.8583 12.897 24.025C12.5803 24.175 12.422 24.4333 12.422 24.8C12.422 24.9333 12.4303 25.0667 12.447 25.2C12.4637 25.3167 12.497 25.4583 12.547 25.625C12.597 25.775 12.6553 25.9667 12.722 26.2C12.8053 26.4333 12.9137 26.725 13.047 27.075L16.547 37.15L20.597 26.1C20.4303 25.65 20.2637 25.2833 20.097 25C19.9303 24.7167 19.7303 24.4917 19.497 24.325C19.2803 24.1583 19.0303 24.0417 18.747 23.975C18.4637 23.8917 18.122 23.825 17.722 23.775V22.75H26.547V23.775C25.847 23.775 25.3303 23.8667 24.997 24.05C24.6637 24.2167 24.497 24.55 24.497 25.05C24.497 25.3 24.5303 25.5917 24.597 25.925C24.6803 26.2583 24.7887 26.6417 24.922 27.075L28.072 37.15ZM42.6687 37.9C42.6687 38.5667 42.6937 39.1 42.7437 39.5C42.7937 39.9 42.8937 40.2083 43.0437 40.425C43.1937 40.6417 43.4103 40.7917 43.6937 40.875C43.977 40.9417 44.3604 40.9833 44.8437 41V42H36.9687V41C37.4353 40.9833 37.8103 40.9333 38.0937 40.85C38.3937 40.75 38.6187 40.6 38.7687 40.4C38.9353 40.1833 39.0437 39.8917 39.0937 39.525C39.1603 39.1417 39.1937 38.6583 39.1937 38.075V35C39.1937 34.0333 39.177 33.2417 39.1437 32.625C39.1103 31.9917 39.0687 31.5583 39.0187 31.325C38.9353 30.9083 38.7437 30.6333 38.4437 30.5C38.1603 30.3667 37.6353 30.3 36.8687 30.3V29.45L42.6687 28.5V37.9ZM38.9937 23.2C38.9937 22.65 39.177 22.1917 39.5437 21.825C39.927 21.4417 40.3853 21.25 40.9187 21.25C41.4687 21.25 41.927 21.4417 42.2937 21.825C42.677 22.1917 42.8687 22.65 42.8687 23.2C42.8687 23.7333 42.677 24.1917 42.2937 24.575C41.927 24.9417 41.4687 25.125 40.9187 25.125C40.3853 25.125 39.927 24.9417 39.5437 24.575C39.177 24.1917 38.9937 23.7333 38.9937 23.2ZM54.2269 41C54.7602 41 55.1352 40.9833 55.3519 40.95C55.5686 40.9 55.6769 40.8083 55.6769 40.675C55.6769 40.575 55.5602 40.3333 55.3269 39.95C55.1102 39.55 54.8269 39.0917 54.4769 38.575L52.5769 35.725L51.3269 36.925V37.9C51.3269 38.55 51.3519 39.075 51.4019 39.475C51.4519 39.875 51.5352 40.1917 51.6519 40.425C51.7852 40.6417 51.9602 40.7917 52.1769 40.875C52.4102 40.9583 52.7019 41 53.0519 41V42H45.6769V41C46.1436 40.9833 46.5186 40.9333 46.8019 40.85C47.0852 40.7667 47.3102 40.625 47.4769 40.425C47.6436 40.2083 47.7519 39.9167 47.8019 39.55C47.8686 39.1667 47.9019 38.675 47.9019 38.075V27.475C47.9019 26.4583 47.8852 25.6583 47.8519 25.075C47.8186 24.4917 47.7269 24.0583 47.5769 23.775C47.4436 23.475 47.2269 23.2917 46.9269 23.225C46.6436 23.1583 46.2519 23.125 45.7519 23.125V22.2L51.3269 21.25V35.15L53.7269 32.875C54.5936 32.0583 55.2102 31.45 55.5769 31.05C55.9436 30.6333 56.1269 30.3333 56.1269 30.15C56.1269 30 55.9686 29.9 55.6519 29.85C55.3519 29.7833 54.7852 29.75 53.9519 29.75V28.75H60.7769V29.75C60.1436 29.75 59.5852 29.8583 59.1019 30.075C58.6186 30.2917 58.0936 30.6667 57.5269 31.2L55.1019 33.475L59.4269 39.6C59.8102 40.1333 60.1852 40.5 60.5519 40.7C60.9186 40.9 61.4019 41 62.0019 41V42H54.2269V41ZM68.3034 37.9C68.3034 38.5667 68.3284 39.1 68.3784 39.5C68.4284 39.9 68.5284 40.2083 68.6784 40.425C68.8284 40.6417 69.0451 40.7917 69.3284 40.875C69.6118 40.9417 69.9951 40.9833 70.4784 41V42H62.6034V41C63.0701 40.9833 63.4451 40.9333 63.7284 40.85C64.0284 40.75 64.2534 40.6 64.4034 40.4C64.5701 40.1833 64.6784 39.8917 64.7284 39.525C64.7951 39.1417 64.8284 38.6583 64.8284 38.075V35C64.8284 34.0333 64.8118 33.2417 64.7784 32.625C64.7451 31.9917 64.7034 31.5583 64.6534 31.325C64.5701 30.9083 64.3784 30.6333 64.0784 30.5C63.7951 30.3667 63.2701 30.3 62.5034 30.3V29.45L68.3034 28.5V37.9ZM64.6284 23.2C64.6284 22.65 64.8118 22.1917 65.1784 21.825C65.5618 21.4417 66.0201 21.25 66.5534 21.25C67.1034 21.25 67.5618 21.4417 67.9284 21.825C68.3118 22.1917 68.5034 22.65 68.5034 23.2C68.5034 23.7333 68.3118 24.1917 67.9284 24.575C67.5618 24.9417 67.1034 25.125 66.5534 25.125C66.0201 25.125 65.5618 24.9417 65.1784 24.575C64.8118 24.1917 64.6284 23.7333 64.6284 23.2Z" fill="white"/>
</svg>
